<svg width="166" height="160" viewBox="0 0 166 160" fill="none" xmlns="http://www.w3.org/2000/svg">
<path fill-rule="evenodd" clip-rule="evenodd" d="M85.7852 0.0360206C101.496 -0.682995 115.271 9.49381 128.538 18.7928C142.692 28.7146 159.881 37.6645 164.714 55.3621C169.527 72.985 159.777 90.8775 152.791 107.595C146.594 122.426 138.989 136.503 126.876 145.912C114.885 155.225 100.348 161.615 85.7852 159.641C71.9985 157.773 63.7442 142.784 51.4371 135.689C35.8671 126.713 13.2706 129.457 4.4181 112.735C-4.44637 95.9896 1.49371 73.5911 9.39468 56.2707C16.6576 40.3489 32.0889 32.492 45.5382 22.5914C58.3669 13.1476 70.3688 0.741563 85.7852 0.0360206Z" fill="#608AF5"/>
<path d="M114 84.1666C113.084 84.1666 112.125 83.875 111.209 83.6666C109.352 83.2576 107.528 82.7145 105.75 82.0416C103.817 81.3384 101.692 81.375 99.7848 82.1442C97.8771 82.9134 96.3214 84.361 95.4168 86.2083L94.5002 88.0833C90.4419 85.8257 86.7126 83.0218 83.4168 79.75C80.145 76.4542 77.3411 72.725 75.0835 68.6666L76.8335 67.5C78.6809 66.5955 80.1284 65.0397 80.8976 63.132C81.6669 61.2244 81.7034 59.0996 81.0002 57.1666C80.3386 55.3851 79.7957 53.5616 79.3752 51.7083C79.1668 50.7916 79.0002 49.8333 78.8752 48.875C78.3692 45.9401 76.8319 43.2822 74.5403 41.3801C72.2486 39.478 69.3531 38.4567 66.3752 38.5H53.8752C52.0795 38.4831 50.3012 38.8534 48.6615 39.5855C47.0217 40.3177 45.559 41.3945 44.3728 42.7428C43.1866 44.0911 42.3049 45.6791 41.7876 47.3988C41.2703 49.1185 41.1297 50.9294 41.3752 52.7083C43.5949 70.1641 51.567 86.3828 64.0321 98.8026C76.4972 111.222 92.7448 119.135 110.209 121.292H111.792C114.864 121.296 117.831 120.169 120.125 118.125C121.443 116.946 122.496 115.501 123.215 113.885C123.933 112.269 124.3 110.518 124.292 108.75V96.25C124.241 93.3557 123.187 90.5689 121.31 88.3653C119.433 86.1616 116.849 84.6776 114 84.1666V84.1666ZM116.084 109.167C116.083 109.758 115.956 110.343 115.712 110.882C115.468 111.421 115.111 111.901 114.667 112.292C114.203 112.696 113.658 112.998 113.07 113.177C112.481 113.357 111.861 113.41 111.25 113.333C95.6456 111.332 81.1512 104.194 70.0532 93.0429C58.9552 81.892 51.8852 67.3639 49.9585 51.75C49.8922 51.1396 49.9503 50.5222 50.1294 49.9349C50.3084 49.3477 50.6046 48.8028 51.0002 48.3333C51.3906 47.8889 51.8713 47.5327 52.4101 47.2884C52.9489 47.0441 53.5336 46.9174 54.1252 46.9166H66.6252C67.5941 46.8951 68.5403 47.212 69.3008 47.8128C70.0613 48.4136 70.5886 49.2607 70.7918 50.2083C70.9585 51.3472 71.1668 52.4722 71.4168 53.5833C71.8982 55.7797 72.5388 57.9382 73.3335 60.0416L67.5002 62.75C67.0014 62.9788 66.5528 63.3039 66.18 63.7066C65.8072 64.1093 65.5177 64.5817 65.328 65.0966C65.1383 65.6115 65.0521 66.1589 65.0745 66.7072C65.0969 67.2554 65.2274 67.7939 65.4585 68.2916C71.4552 81.1365 81.7804 91.4616 94.6252 97.4583C95.6396 97.8751 96.7774 97.8751 97.7918 97.4583C98.3115 97.2724 98.789 96.9852 99.1967 96.6133C99.6044 96.2413 99.9342 95.7921 100.167 95.2916L102.75 89.4583C104.904 90.2286 107.103 90.8687 109.334 91.375C110.445 91.625 111.57 91.8333 112.709 92C113.656 92.2033 114.503 92.7305 115.104 93.491C115.705 94.2515 116.022 95.1977 116 96.1666L116.084 109.167Z" fill="white"/>
</svg>
