<svg width="166" height="160" viewBox="0 0 166 160" fill="none" xmlns="http://www.w3.org/2000/svg">
<path fill-rule="evenodd" clip-rule="evenodd" d="M85.7852 0.0360206C101.496 -0.682995 115.271 9.49381 128.538 18.7928C142.692 28.7146 159.881 37.6645 164.714 55.3621C169.527 72.985 159.777 90.8775 152.791 107.595C146.594 122.426 138.989 136.503 126.876 145.912C114.885 155.225 100.348 161.615 85.7852 159.641C71.9985 157.773 63.7442 142.784 51.4371 135.689C35.8671 126.713 13.2706 129.457 4.4181 112.735C-4.44637 95.9896 1.49371 73.5911 9.39468 56.2707C16.6576 40.3489 32.0889 32.492 45.5382 22.5914C58.3669 13.1476 70.3688 0.741563 85.7852 0.0360206Z" fill="#608AF5"/>
<path d="M52.958 73.7501H44.6247C43.5196 73.7501 42.4598 74.189 41.6784 74.9704C40.897 75.7518 40.458 76.8117 40.458 77.9167C40.458 79.0218 40.897 80.0816 41.6784 80.863C42.4598 81.6444 43.5196 82.0834 44.6247 82.0834H52.958C54.0631 82.0834 55.1229 81.6444 55.9043 80.863C56.6857 80.0816 57.1247 79.0218 57.1247 77.9167C57.1247 76.8117 56.6857 75.7518 55.9043 74.9704C55.1229 74.189 54.0631 73.7501 52.958 73.7501ZM122.875 61.9167V61.6667C121.681 60.2075 120.172 59.0372 118.462 58.2435C116.752 57.4498 114.885 57.0532 113 57.0834H79.958C76.8964 57.0559 73.9311 58.153 71.6247 60.1667V60.1667C69.4705 62.0648 68.0542 64.6613 67.6247 67.5001L63.958 88.3334C63.6427 90.1325 63.7255 91.9789 64.2006 93.7426C64.6758 95.5063 65.5316 97.1444 66.708 98.5417C67.8783 99.9344 69.3384 101.055 70.9864 101.825C72.6344 102.595 74.4306 102.996 76.2497 103H109.333C112.305 103.045 115.195 102.029 117.486 100.136C119.777 98.242 121.318 95.594 121.833 92.6667L125.5 71.8334C125.788 70.0888 125.704 68.3028 125.251 66.5934C124.799 64.8839 123.989 63.29 122.875 61.9167V61.9167ZM111.458 65.4167L97.2913 76.9167C96.4537 77.5918 95.3875 77.9167 94.3157 77.8235C93.244 77.7303 92.2499 77.2262 91.5413 76.4167L81.833 65.4167H111.458ZM113.458 91.1251C113.289 92.1034 112.777 92.9893 112.013 93.6233C111.249 94.2574 110.284 94.5978 109.291 94.5834H76.2497C75.6446 94.5783 75.0479 94.4415 74.501 94.1824C73.9541 93.9234 73.4703 93.5484 73.083 93.0834C72.6948 92.6209 72.4117 92.0795 72.2534 91.4967C72.0952 90.914 72.0654 90.3038 72.1663 89.7084L75.4997 70.8334L85.2913 81.9167C87.4226 84.3391 90.408 85.8435 93.623 86.1153C96.838 86.3871 100.034 85.4052 102.541 83.3751L116.875 71.6667L113.458 91.1251ZM57.1247 57.0834H44.6247C43.5196 57.0834 42.4598 57.5224 41.6784 58.3038C40.897 59.0852 40.458 60.145 40.458 61.2501C40.458 62.3551 40.897 63.4149 41.6784 64.1963C42.4598 64.9777 43.5196 65.4167 44.6247 65.4167H57.1247C58.2297 65.4167 59.2895 64.9777 60.071 64.1963C60.8524 63.4149 61.2913 62.3551 61.2913 61.2501C61.2913 60.145 60.8524 59.0852 60.071 58.3038C59.2895 57.5224 58.2297 57.0834 57.1247 57.0834Z" fill="white"/>
</svg>
