<svg width="166" height="160" viewBox="0 0 166 160" fill="none" xmlns="http://www.w3.org/2000/svg">
<path fill-rule="evenodd" clip-rule="evenodd" d="M85.7852 0.0360206C101.496 -0.682995 115.271 9.49381 128.538 18.7928C142.692 28.7146 159.881 37.6645 164.714 55.3621C169.527 72.985 159.777 90.8775 152.791 107.595C146.594 122.426 138.989 136.503 126.876 145.912C114.885 155.225 100.348 161.615 85.7852 159.641C71.9985 157.773 63.7442 142.784 51.4371 135.689C35.8671 126.713 13.2706 129.457 4.4181 112.735C-4.44637 95.9896 1.49371 73.5911 9.39468 56.2707C16.6576 40.3489 32.0889 32.492 45.5382 22.5914C58.3669 13.1476 70.3688 0.741563 85.7852 0.0360206Z" fill="#608AF5"/>
<path d="M82.9998 39.3612C73.1059 39.3616 63.5351 42.8825 55.9996 49.2939C48.4642 55.7053 43.456 64.5888 41.8712 74.3549C40.2863 84.121 42.2282 94.1323 47.3494 102.598C52.4705 111.063 60.4368 117.43 69.8228 120.559C71.9061 120.924 72.6874 119.674 72.6874 118.58C72.6874 117.59 72.6352 114.309 72.6352 110.82C62.1665 112.747 59.4581 108.268 58.6248 105.924C57.7001 103.644 56.2343 101.624 54.354 100.038C52.8956 99.257 50.8123 97.33 54.3018 97.278C55.6343 97.4225 56.9122 97.8862 58.0274 98.6296C59.1426 99.373 60.0621 100.374 60.7081 101.549C61.278 102.572 62.0443 103.474 62.9631 104.201C63.8819 104.928 64.9351 105.466 66.0624 105.786C67.1897 106.105 68.369 106.199 69.5326 106.062C70.6962 105.924 71.8213 105.559 72.8435 104.986C73.0238 102.868 73.9679 100.887 75.4998 99.4134C66.229 98.3717 56.5415 94.7778 56.5415 78.8405C56.4829 74.6994 58.011 70.6929 60.8123 67.6426C59.5385 64.0435 59.6875 60.0938 61.229 56.6009C61.229 56.6009 64.7184 55.5071 72.6873 60.8717C79.5052 58.9966 86.7028 58.9966 93.5206 60.8717C101.489 55.4551 104.979 56.6009 104.979 56.6009C106.521 60.0937 106.67 64.0435 105.396 67.6426C108.205 70.6877 109.735 74.6977 109.666 78.8405C109.666 94.83 99.9268 98.3717 90.656 99.4134C91.6504 100.421 92.4163 101.631 92.9015 102.961C93.3868 104.291 93.5802 105.71 93.4685 107.122C93.4685 112.695 93.4164 117.174 93.4164 118.58C93.4164 119.674 94.1977 120.976 96.281 120.559C105.65 117.405 113.594 111.023 118.693 102.553C123.793 94.0834 125.716 84.0772 124.12 74.3205C122.524 64.5639 117.513 55.6919 109.981 49.2883C102.449 42.8847 92.8861 39.3664 82.9998 39.3612V39.3612Z" fill="white"/>
</svg>
