<svg width="166" height="160" viewBox="0 0 166 160" fill="none" xmlns="http://www.w3.org/2000/svg">
<path fill-rule="evenodd" clip-rule="evenodd" d="M85.7852 0.0360206C101.496 -0.682995 115.271 9.49381 128.538 18.7928C142.692 28.7146 159.881 37.6645 164.714 55.3621C169.527 72.985 159.777 90.8775 152.791 107.595C146.594 122.426 138.989 136.503 126.876 145.912C114.885 155.225 100.348 161.615 85.7852 159.641C71.9985 157.773 63.7442 142.784 51.4371 135.689C35.8671 126.713 13.2706 129.457 4.4181 112.735C-4.44637 95.9896 1.49371 73.5911 9.39468 56.2707C16.6576 40.3489 32.0889 32.492 45.5382 22.5914C58.3669 13.1476 70.3688 0.741563 85.7852 0.0360206Z" fill="#608AF5"/>
<path d="M105.25 52.7502C104.261 52.7502 103.294 53.0434 102.472 53.5928C101.65 54.1422 101.009 54.9231 100.63 55.8367C100.252 56.7504 100.153 57.7557 100.346 58.7256C100.539 59.6955 101.015 60.5864 101.714 61.2857C102.413 61.985 103.304 62.4612 104.274 62.6541C105.244 62.847 106.249 62.748 107.163 62.3696C108.077 61.9911 108.858 61.3503 109.407 60.528C109.956 59.7058 110.25 58.7391 110.25 57.7502C110.25 56.4241 109.723 55.1523 108.785 54.2146C107.848 53.2769 106.576 52.7502 105.25 52.7502ZM124.416 62.8335C124.335 59.3764 123.688 55.956 122.5 52.7085C121.44 49.9299 119.791 47.4138 117.666 45.3335C115.603 43.1978 113.081 41.5592 110.291 40.5418C107.052 39.3175 103.628 38.6552 100.166 38.5835C95.7497 38.3335 94.333 38.3335 82.9997 38.3335C71.6663 38.3335 70.2497 38.3335 65.833 38.5835C62.3711 38.6552 58.9469 39.3175 55.708 40.5418C52.9233 41.5695 50.4036 43.2067 48.333 45.3335C46.1973 47.3967 44.5587 49.9187 43.5413 52.7085C42.317 55.9474 41.6547 59.3716 41.583 62.8335C41.333 67.2502 41.333 68.6668 41.333 80.0002C41.333 91.3335 41.333 92.7502 41.583 97.1668C41.6547 100.629 42.317 104.053 43.5413 107.292C44.5587 110.082 46.1973 112.604 48.333 114.667C50.4036 116.794 52.9233 118.431 55.708 119.458C58.9469 120.683 62.3711 121.345 65.833 121.417C70.2497 121.667 71.6663 121.667 82.9997 121.667C94.333 121.667 95.7497 121.667 100.166 121.417C103.628 121.345 107.052 120.683 110.291 119.458C113.081 118.441 115.603 116.803 117.666 114.667C119.801 112.594 121.451 110.076 122.5 107.292C123.688 104.044 124.335 100.624 124.416 97.1668C124.416 92.7502 124.666 91.3335 124.666 80.0002C124.666 68.6668 124.666 67.2502 124.416 62.8335ZM116.916 96.6668C116.886 99.3117 116.407 101.932 115.5 104.417C114.834 106.23 113.766 107.869 112.375 109.208C111.023 110.586 109.388 111.652 107.583 112.333C105.098 113.241 102.478 113.72 99.833 113.75C95.6663 113.958 94.1247 114 83.1663 114C72.208 114 70.6663 114 66.4997 113.75C63.7534 113.802 61.0188 113.379 58.4163 112.5C56.6904 111.784 55.1303 110.72 53.833 109.375C52.45 108.037 51.3949 106.397 50.7497 104.583C49.7324 102.063 49.1682 99.3833 49.083 96.6668C49.083 92.5002 48.833 90.9585 48.833 80.0002C48.833 69.0418 48.833 67.5002 49.083 63.3335C49.1017 60.6296 49.5953 57.9499 50.5413 55.4168C51.2749 53.6581 52.4008 52.0904 53.833 50.8335C55.0989 49.4009 56.6634 48.2631 58.4163 47.5002C60.9561 46.5837 63.633 46.1047 66.333 46.0835C70.4997 46.0835 72.0413 45.8335 82.9997 45.8335C93.958 45.8335 95.4997 45.8335 99.6663 46.0835C102.311 46.1138 104.932 46.5929 107.416 47.5002C109.31 48.2029 111.009 49.3454 112.375 50.8335C113.74 52.1134 114.807 53.6782 115.5 55.4168C116.426 57.9541 116.905 60.6326 116.916 63.3335C117.125 67.5002 117.166 69.0418 117.166 80.0002C117.166 90.9585 117.125 92.5002 116.916 96.6668ZM82.9997 58.6252C78.7739 58.6334 74.6453 59.894 71.1357 62.2477C67.6261 64.6015 64.8929 67.9426 63.2815 71.8491C61.67 75.7556 61.2527 80.0521 62.0821 84.1957C62.9116 88.3393 64.9507 92.1441 67.9417 95.1292C70.9327 98.1144 74.7414 100.146 78.8866 100.967C83.0318 101.789 87.3274 101.363 91.2308 99.7441C95.1341 98.125 98.47 95.3853 100.817 91.8711C103.164 88.3569 104.416 84.226 104.416 80.0002C104.422 77.1881 103.871 74.4027 102.797 71.8041C101.722 69.2056 100.144 66.8452 98.1533 64.8587C96.1629 62.8722 93.7995 61.2988 91.1988 60.229C88.5982 59.1592 85.8117 58.6142 82.9997 58.6252ZM82.9997 93.8752C80.2555 93.8752 77.5729 93.0614 75.2911 91.5368C73.0094 90.0122 71.231 87.8452 70.1808 85.3099C69.1307 82.7746 68.8559 79.9848 69.3913 77.2933C69.9266 74.6018 71.2481 72.1295 73.1886 70.1891C75.129 68.2486 77.6013 66.9271 80.2928 66.3918C82.9843 65.8564 85.7741 66.1312 88.3094 67.1813C90.8447 68.2315 93.0117 70.0099 94.5363 72.2916C96.0609 74.5734 96.8747 77.2559 96.8747 80.0002C96.8747 81.8223 96.5158 83.6265 95.8185 85.3099C95.1212 86.9933 94.0992 88.5229 92.8108 89.8113C91.5224 91.0997 89.9928 92.1217 88.3094 92.819C86.626 93.5163 84.8218 93.8752 82.9997 93.8752Z" fill="white"/>
</svg>
