<svg width="1440" height="330" viewBox="0 0 1440 330" fill="none" xmlns="http://www.w3.org/2000/svg">
<path d="M-201 330L-143.7 288.8C-86.4 247.6 28.2 165.2 142.8 165.2C257.4 165.2 372 247.6 486.6 247.6C601.2 247.6 715.8 165.2 830.4 151.552C945 136.875 1059.6 193.525 1174.2 178.847C1288.8 165.2 1403.4 82.8 1460.7 41.6L1518 0.400024V330H1460.7C1403.4 330 1288.8 330 1174.2 330C1059.6 330 945 330 830.4 330C715.8 330 601.2 330 486.6 330C372 330 257.4 330 142.8 330C28.2 330 -86.4 330 -143.7 330H-201Z" fill="#4581F6"/>
</svg>
